<mxfile host="Electron" modified="2023-01-22T16:46:48.228Z" agent="5.0 (Macintosh; Intel Mac OS X 10_15_7) AppleWebKit/537.36 (KHTML, like Gecko) draw.io/17.4.2 Chrome/100.0.4896.60 Electron/18.0.1 Safari/537.36" etag="wmiIRgyTsRaXrhmSbRgC" compressed="false" version="17.4.2" type="device">
  <diagram id="nLmdIaT2Gf6jWptFQh0Z" name="A4 landscape">
    <mxGraphModel dx="492" dy="373" grid="1" gridSize="10" guides="1" tooltips="1" connect="1" arrows="1" fold="1" page="1" pageScale="1" pageWidth="1169" pageHeight="827" math="0" shadow="0">
      <root>
        <mxCell id="0" />
        <mxCell id="1" style="locked=1;" parent="0" />
        <mxCell id="F94HlljOYMjmZpkeZb63-1" value="" style="shape=image;verticalLabelPosition=bottom;labelBackgroundColor=default;verticalAlign=top;aspect=fixed;imageAspect=0;image=https://upload.wikimedia.org/wikipedia/commons/c/ce/Logo_K-9_and_Company.jpg;" vertex="1" parent="1">
          <mxGeometry x="40" y="40" width="890.34" height="670" as="geometry" />
        </mxCell>
        <mxCell id="MBH478hnZedLmE2cb-ag-1" value="Diagram" style="" parent="0" />
        <mxCell id="F94HlljOYMjmZpkeZb63-12" value="" style="ellipse;whiteSpace=wrap;html=1;aspect=fixed;" vertex="1" parent="MBH478hnZedLmE2cb-ag-1">
          <mxGeometry x="448" y="253" width="42" height="42" as="geometry" />
        </mxCell>
        <mxCell id="F94HlljOYMjmZpkeZb63-13" value="" style="ellipse;whiteSpace=wrap;html=1;aspect=fixed;" vertex="1" parent="MBH478hnZedLmE2cb-ag-1">
          <mxGeometry x="650" y="350" width="63" height="63" as="geometry" />
        </mxCell>
        <mxCell id="F94HlljOYMjmZpkeZb63-14" value="" style="ellipse;whiteSpace=wrap;html=1;aspect=fixed;" vertex="1" parent="MBH478hnZedLmE2cb-ag-1">
          <mxGeometry x="213" y="110" width="42" height="42" as="geometry" />
        </mxCell>
        <mxCell id="F94HlljOYMjmZpkeZb63-23" style="edgeStyle=orthogonalEdgeStyle;rounded=1;orthogonalLoop=1;jettySize=auto;html=1;exitX=0;exitY=0.5;exitDx=0;exitDy=0;entryX=1;entryY=0.5;entryDx=0;entryDy=0;endArrow=none;endFill=0;" edge="1" parent="MBH478hnZedLmE2cb-ag-1" source="F94HlljOYMjmZpkeZb63-15">
          <mxGeometry relative="1" as="geometry">
            <mxPoint x="351.00000000000216" y="132" as="sourcePoint" />
            <mxPoint x="254.99999999999955" y="137.99999999999994" as="targetPoint" />
            <Array as="points">
              <mxPoint x="351" y="227" />
              <mxPoint x="255" y="227" />
            </Array>
          </mxGeometry>
        </mxCell>
        <mxCell id="F94HlljOYMjmZpkeZb63-15" value="" style="ellipse;whiteSpace=wrap;html=1;aspect=fixed;" vertex="1" parent="MBH478hnZedLmE2cb-ag-1">
          <mxGeometry x="351" y="109" width="32" height="32" as="geometry" />
        </mxCell>
        <mxCell id="F94HlljOYMjmZpkeZb63-24" style="edgeStyle=orthogonalEdgeStyle;rounded=1;orthogonalLoop=1;jettySize=auto;html=1;exitX=1;exitY=0.5;exitDx=0;exitDy=0;entryX=0;entryY=0.5;entryDx=0;entryDy=0;endArrow=none;endFill=0;" edge="1" parent="MBH478hnZedLmE2cb-ag-1" source="F94HlljOYMjmZpkeZb63-16" target="F94HlljOYMjmZpkeZb63-17">
          <mxGeometry relative="1" as="geometry">
            <Array as="points">
              <mxPoint x="275" y="270" />
              <mxPoint x="390" y="270" />
            </Array>
          </mxGeometry>
        </mxCell>
        <mxCell id="F94HlljOYMjmZpkeZb63-16" value="" style="ellipse;whiteSpace=wrap;html=1;aspect=fixed;" vertex="1" parent="MBH478hnZedLmE2cb-ag-1">
          <mxGeometry x="214" y="350" width="61" height="61" as="geometry" />
        </mxCell>
        <mxCell id="F94HlljOYMjmZpkeZb63-17" value="" style="ellipse;whiteSpace=wrap;html=1;aspect=fixed;" vertex="1" parent="MBH478hnZedLmE2cb-ag-1">
          <mxGeometry x="390" y="372" width="42" height="42" as="geometry" />
        </mxCell>
        <mxCell id="F94HlljOYMjmZpkeZb63-20" value="" style="endArrow=none;html=1;rounded=0;entryX=0;entryY=0.5;entryDx=0;entryDy=0;exitX=0;exitY=0.5;exitDx=0;exitDy=0;" edge="1" parent="MBH478hnZedLmE2cb-ag-1" source="F94HlljOYMjmZpkeZb63-16" target="F94HlljOYMjmZpkeZb63-14">
          <mxGeometry width="50" height="50" relative="1" as="geometry">
            <mxPoint x="214" y="350" as="sourcePoint" />
            <mxPoint x="214" y="205" as="targetPoint" />
          </mxGeometry>
        </mxCell>
        <mxCell id="F94HlljOYMjmZpkeZb63-22" value="" style="endArrow=none;html=1;entryX=1;entryY=0.5;entryDx=0;entryDy=0;exitX=1;exitY=0.5;exitDx=0;exitDy=0;rounded=1;" edge="1" parent="MBH478hnZedLmE2cb-ag-1" source="F94HlljOYMjmZpkeZb63-17" target="F94HlljOYMjmZpkeZb63-15">
          <mxGeometry width="50" height="50" relative="1" as="geometry">
            <mxPoint x="411" y="227" as="sourcePoint" />
            <mxPoint x="470" y="270" as="targetPoint" />
            <Array as="points">
              <mxPoint x="430" y="227" />
              <mxPoint x="410" y="227" />
              <mxPoint x="383" y="227" />
            </Array>
          </mxGeometry>
        </mxCell>
      </root>
    </mxGraphModel>
  </diagram>
</mxfile>
